<svg xmlns="http://www.w3.org/2000/svg" width="72" height="72" viewBox="0 0 72 72" fill="none"><rect width="72" height="72" rx="36" fill="#EEF5FF"></rect><path d="M53.5 23.5H46.6L48.1 19.75H52.25C52.9375 19.75 53.5 19.1875 53.5 18.5C53.5 17.8125 52.9375 17.25 52.25 17.25H42.25C41.5625 17.25 41 17.8125 41 18.5C41 19.1875 41.5625 19.75 42.25 19.75H45.4L43.9 23.5H28.0875L26.5875 19.75H29.7375C30.425 19.75 30.9875 19.1875 30.9875 18.5C30.9875 17.8125 30.425 17.25 29.7375 17.25H19.75C19.0625 17.25 18.5 17.8125 18.5 18.5C18.5 19.1875 19.0625 19.75 19.75 19.75H23.9L25.4 23.5H18.5C17.8125 23.5 17.25 24.0625 17.25 24.75V43.5C17.25 44.1875 17.8125 44.75 18.5 44.75H31.625V52.25H26C25.3125 52.25 24.75 52.8125 24.75 53.5C24.75 54.1875 25.3125 54.75 26 54.75H46C46.6875 54.75 47.25 54.1875 47.25 53.5C47.25 52.8125 46.6875 52.25 46 52.25H40.375V44.75H53.5C54.1875 44.75 54.75 44.1875 54.75 43.5V24.75C54.75 24.0625 54.1875 23.5 53.5 23.5ZM37.875 52.25H34.125V44.75H37.875V52.25ZM52.25 42.25H19.75V26H52.25V42.25Z" fill="#377DFF"></path><path d="M48.5 36H35.375C34.6875 36 34.125 36.5625 34.125 37.25C34.125 37.9375 34.6875 38.5 35.375 38.5H48.5C49.1875 38.5 49.75 37.9375 49.75 37.25C49.75 36.5625 49.1875 36 48.5 36Z" fill="#599FFF"></path><path d="M40.375 32.25H48.5C49.1875 32.25 49.75 31.6875 49.75 31C49.75 30.3125 49.1875 29.75 48.5 29.75H40.375C39.6875 29.75 39.125 30.3125 39.125 31C39.125 31.6875 39.6875 32.25 40.375 32.25Z" fill="#599FFF"></path><path d="M35.375 32.25H36C36.6875 32.25 37.25 31.6875 37.25 31C37.25 30.3125 36.6875 29.75 36 29.75H35.375C34.6875 29.75 34.125 30.3125 34.125 31C34.125 31.6875 34.6875 32.25 35.375 32.25Z" fill="#599FFF"></path><path d="M27.775 28.825C27.3 28.4 26.575 28.4 26.1 28.825C25.4625 29.4 22.25 32.4125 22.25 34.8625C22.25 37.5625 24.35 39.7625 26.9375 39.7625C29.525 39.7625 31.625 37.5625 31.625 34.8625C31.625 32.4125 28.4125 29.4125 27.775 28.825Z" fill="#599FFF"></path></svg>