<svg xmlns="http://www.w3.org/2000/svg" width="72" height="72" viewBox="0 0 72 72" fill="none"><rect width="72" height="72" rx="36" fill="#EEF5FF"></rect><path d="M51.625 28.5C50.9375 28.5 50.375 29.0625 50.375 29.75V44.75H21.625V29.75C21.625 29.0625 21.0625 28.5 20.375 28.5C19.6875 28.5 19.125 29.0625 19.125 29.75V53.5C19.125 54.1875 19.6875 54.75 20.375 54.75H35.375C36.0625 54.75 36.625 54.1875 36.625 53.5V47.25H51.625C52.3125 47.25 52.875 46.6875 52.875 46V29.75C52.875 29.0625 52.3125 28.5 51.625 28.5ZM29.125 47.25V52.25H26.625V47.25H29.125ZM21.625 47.25H24.125V52.25H21.625V47.25ZM34.125 52.25H31.625V47.25H34.125V52.25Z" fill="#377DFF"></path><path d="M36 42.1249C38.2375 42.1249 40.0625 40.2125 40.0625 37.85C40.0625 35.7875 37.6 33.3875 36.8375 32.7C36.3625 32.2625 35.6375 32.2625 35.15 32.7C34.4 33.3875 31.925 35.7875 31.925 37.85C31.925 40.2 33.75 42.1249 35.9875 42.1249H36ZM36 35.4C36.8375 36.325 37.5625 37.3625 37.5625 37.8625C37.5625 38.8375 36.8625 39.6375 36 39.6375C35.1375 39.6375 34.4375 38.8375 34.4375 37.8625C34.4375 37.375 35.1625 36.325 36 35.4Z" fill="#377DFF"></path><path d="M47.25 43.5H47.875C48.5625 43.5 49.125 42.9375 49.125 42.25C49.125 41.5625 48.5625 41 47.875 41H47.25C46.5625 41 46 41.5625 46 42.25C46 42.9375 46.5625 43.5 47.25 43.5Z" fill="#377DFF"></path><path d="M42.25 43.5H42.875C43.5625 43.5 44.125 42.9375 44.125 42.25C44.125 41.5625 43.5625 41 42.875 41H42.25C41.5625 41 41 41.5625 41 42.25C41 42.9375 41.5625 43.5 42.25 43.5Z" fill="#377DFF"></path><path d="M33.9875 17.9375C33.775 17.5125 33.3375 17.25 32.875 17.25H20.375C19.6875 17.25 19.125 17.8125 19.125 18.5V22.25H36.15L34 17.9375H33.9875Z" fill="#599FFF"></path><path d="M54.75 24.75H17.25V27.25H54.75V24.75Z" fill="#599FFF"></path></svg>