<svg xmlns="http://www.w3.org/2000/svg" width="72" height="72" viewBox="0 0 72 72" fill="none"><rect width="72" height="72" rx="36" fill="#EEF5FF"></rect><path d="M54.4626 52.6999L52.5501 50.4124L53.8501 47.4124C54.4126 46.1249 54.1876 44.5999 53.2876 43.5124L44.2751 32.7874C43.8251 32.2624 43.0376 32.1874 42.5126 32.6374C41.9876 33.0874 41.9126 33.8749 42.3626 34.3999L51.3751 45.1124C51.6751 45.4749 51.7501 45.9874 51.5626 46.4124L50.7501 48.2749L40.6876 36.2874C40.2501 35.7624 39.4626 35.6874 38.9251 36.1374C38.4001 36.5749 38.3251 37.3749 38.7751 37.8999L44.5376 44.7624H37.2626V43.5124C37.2626 42.8249 36.7001 42.2624 36.0126 42.2624C35.3251 42.2624 34.7626 42.8249 34.7626 43.5124V44.7624H27.4876L33.2501 37.8999C33.7001 37.3749 33.6251 36.5874 33.1001 36.1374C32.5751 35.6999 31.7876 35.7624 31.3376 36.2874L21.2751 48.2749L20.4626 46.4124C20.2751 45.9874 20.3501 45.4749 20.6501 45.1124L29.6626 34.3874C30.1126 33.8624 30.0376 33.0749 29.5126 32.6249C28.9876 32.1749 28.2001 32.2499 27.7501 32.7749L18.7376 43.5124C17.8376 44.5999 17.6251 46.1249 18.1751 47.4124L19.4751 50.4124L17.5626 52.6999C17.1126 53.2249 17.1876 54.0124 17.7126 54.4624C17.9501 54.6624 18.2376 54.7499 18.5126 54.7499C18.8751 54.7499 19.2251 54.5999 19.4751 54.2999L25.4001 47.2499H34.7751V48.4999C34.7751 49.1874 35.3376 49.7499 36.0251 49.7499C36.7126 49.7499 37.2751 49.1874 37.2751 48.4999V47.2499H46.6501L52.5751 54.2999C52.8251 54.5999 53.1751 54.7499 53.5376 54.7499C53.8251 54.7499 54.1001 54.6499 54.3376 54.4624C54.8626 54.0249 54.9376 53.2249 54.4876 52.6999H54.4626Z" fill="#377DFF"></path><path d="M33.5 33.5H38.5C39.875 33.5 41 32.375 41 31V26C41 24.625 39.875 23.5 38.5 23.5H38.4625L39.075 20.45C39.2375 19.6625 39.025 18.85 38.525 18.225C38.0125 17.6 37.2625 17.25 36.45 17.25H35.55C34.75 17.25 33.9875 17.6125 33.475 18.225C32.9625 18.85 32.7625 19.6625 32.925 20.45L33.5375 23.5H33.5C32.125 23.5 31 24.625 31 26V31C31 32.375 32.125 33.5 33.5 33.5ZM36.625 29.75H35.375C34.6875 29.75 34.125 29.1875 34.125 28.5C34.125 27.8125 34.6875 27.25 35.375 27.25H36.625C37.3125 27.25 37.875 27.8125 37.875 28.5C37.875 29.1875 37.3125 29.75 36.625 29.75Z" fill="#599FFF"></path></svg>