<svg xmlns="http://www.w3.org/2000/svg" width="296" height="306" viewBox="0 0 296 306" fill="none"><path d="M254.192 49.5781C272.508 72.0603 285.336 98.4053 291.144 126.525C297.178 154.726 296.192 184.702 292.664 218.85C289.055 253.223 283.213 291.625 259.284 302.02C235.213 312.109 193.28 294.272 160.445 287.145C127.835 280.1 104.382 284.296 76.9632 283.987C49.4625 283.903 17.7709 279.232 7.08495 260.296C-3.82604 241.278 6.12561 207.687 6.08773 179.123C5.90687 150.251 -4.32447 125.872 4.50705 110.738C13.6456 95.4603 41.9291 89.2017 61.6667 74.2194C81.6292 59.3192 93.128 35.4701 113.03 20.0377C133.238 4.46243 161.4 -2.86021 187.157 2.70615C213.139 8.35455 236.184 26.9529 254.192 49.5781Z" fill="#377DFF"></path></svg>